<?xml version="1.0" encoding="UTF-8" standalone="no"?>
<!-- Created with Inkscape (http://www.inkscape.org/) -->

<svg
   version="1.1"
   id="svg2"
   xml:space="preserve"
   width="388.07639mm"
   height="101.74532mm"
   viewBox="0 0 1153.8446 302.51335"
   sodipodi:docname="bg.svg"
   inkscape:version="1.1 (c4e8f9ed74, 2021-05-24)"
   xmlns:inkscape="http://www.inkscape.org/namespaces/inkscape"
   xmlns:sodipodi="http://sodipodi.sourceforge.net/DTD/sodipodi-0.dtd"
   xmlns:xlink="http://www.w3.org/1999/xlink"
   xmlns="http://www.w3.org/2000/svg"
   xmlns:svg="http://www.w3.org/2000/svg"><defs
     id="defs6"><linearGradient
       inkscape:collect="always"
       id="linearGradient3319"><stop
         style="stop-color:#fabd20;stop-opacity:1"
         offset="0"
         id="stop3315" /><stop
         style="stop-color:#ef3e36;stop-opacity:1"
         offset="1"
         id="stop3317" /></linearGradient><clipPath
       clipPathUnits="userSpaceOnUse"
       id="clipPath18"><path
         d="m 60.897,71.086 h 922.77 V 610.833 H 60.897 Z"
         id="path16" /></clipPath><clipPath
       clipPathUnits="userSpaceOnUse"
       id="clipPath26"><path
         d="M -313.767,1861.61 H 2213.67 V -527.393 H -313.767 Z"
         id="path24" /></clipPath><clipPath
       clipPathUnits="userSpaceOnUse"
       id="clipPath42"><path
         d="M -354.766,1822.86 H 2172.67 V -566.145 H -354.766 Z"
         id="path40" /></clipPath><clipPath
       clipPathUnits="userSpaceOnUse"
       id="clipPath58"><path
         d="M -395.764,1784.11 H 2131.67 V -604.896 H -395.764 Z"
         id="path56" /></clipPath><clipPath
       clipPathUnits="userSpaceOnUse"
       id="clipPath74"><path
         d="M -436.763,1745.36 H 2090.67 V -643.646 H -436.763 Z"
         id="path72" /></clipPath><clipPath
       clipPathUnits="userSpaceOnUse"
       id="clipPath90"><path
         d="M -477.762,1706.61 H 2049.67 V -682.397 H -477.762 Z"
         id="path88" /></clipPath><clipPath
       clipPathUnits="userSpaceOnUse"
       id="clipPath106"><path
         d="M -518.759,1667.86 H 2008.67 V -721.149 H -518.759 Z"
         id="path104" /></clipPath><clipPath
       clipPathUnits="userSpaceOnUse"
       id="clipPath122"><path
         d="M -559.758,1629.1 H 1967.68 V -759.901 H -559.758 Z"
         id="path120" /></clipPath><clipPath
       clipPathUnits="userSpaceOnUse"
       id="clipPath138"><path
         d="M -600.757,1590.35 H 1926.68 V -798.654 H -600.757 Z"
         id="path136" /></clipPath><clipPath
       clipPathUnits="userSpaceOnUse"
       id="clipPath154"><path
         d="M -641.755,1551.6 H 1885.68 V -837.405 H -641.755 Z"
         id="path152" /></clipPath><clipPath
       clipPathUnits="userSpaceOnUse"
       id="clipPath170"><path
         d="M -682.753,1512.85 H 1844.68 V -876.157 H -682.753 Z"
         id="path168" /></clipPath><clipPath
       clipPathUnits="userSpaceOnUse"
       id="clipPath186"><path
         d="M -723.752,1474.1 H 1803.68 V -914.909 H -723.752 Z"
         id="path184" /></clipPath><clipPath
       clipPathUnits="userSpaceOnUse"
       id="clipPath202"><path
         d="M -764.749,1435.35 H 1762.69 V -953.659 H -764.749 Z"
         id="path200" /></clipPath><clipPath
       clipPathUnits="userSpaceOnUse"
       id="clipPath218"><path
         d="M -805.749,1396.6 H 1721.69 V -992.411 H -805.749 Z"
         id="path216" /></clipPath><clipPath
       clipPathUnits="userSpaceOnUse"
       id="clipPath234"><path
         d="M -846.746,1357.84 H 1680.69 v -2389 H -846.746 Z"
         id="path232" /></clipPath><clipPath
       clipPathUnits="userSpaceOnUse"
       id="clipPath250"><path
         d="M -887.745,1319.09 H 1639.69 v -2389 H -887.745 Z"
         id="path248" /></clipPath><clipPath
       clipPathUnits="userSpaceOnUse"
       id="clipPath266"><path
         d="M -928.744,1280.34 H 1598.69 V -1108.67 H -928.744 Z"
         id="path264" /></clipPath><clipPath
       clipPathUnits="userSpaceOnUse"
       id="clipPath282"><path
         d="M -969.742,1241.59 H 1557.69 V -1147.42 H -969.742 Z"
         id="path280" /></clipPath><clipPath
       clipPathUnits="userSpaceOnUse"
       id="clipPath298"><path
         d="M -1010.74,1202.84 H 1516.69 V -1186.17 H -1010.74 Z"
         id="path296" /></clipPath><clipPath
       clipPathUnits="userSpaceOnUse"
       id="clipPath314"><path
         d="m -1051.74,1164.08 h 2527.43 v -2389 h -2527.43 z"
         id="path312" /></clipPath><clipPath
       clipPathUnits="userSpaceOnUse"
       id="clipPath330"><path
         d="M 200.487,839.821 H 1191.21 V -96.6914 H 200.487 Z"
         id="path328" /></clipPath><clipPath
       clipPathUnits="userSpaceOnUse"
       id="clipPath346"><path
         d="M 241.486,801.07 H 1232.21 V -135.441 H 241.486 Z"
         id="path344" /></clipPath><clipPath
       clipPathUnits="userSpaceOnUse"
       id="clipPath362"><path
         d="M 118.491,917.325 H 1109.22 V -19.1855 H 118.491 Z"
         id="path360" /></clipPath><clipPath
       clipPathUnits="userSpaceOnUse"
       id="clipPath378"><path
         d="m 159.49,878.573 h 990.73 V -57.9375 H 159.49 Z"
         id="path376" /></clipPath><clipPath
       clipPathUnits="userSpaceOnUse"
       id="clipPath394"><path
         d="M 36.4941,994.829 H 1027.22 V 58.3164 H 36.4941 Z"
         id="path392" /></clipPath><clipPath
       clipPathUnits="userSpaceOnUse"
       id="clipPath410"><path
         d="M 77.4927,956.077 H 1068.22 V 19.5654 H 77.4927 Z"
         id="path408" /></clipPath><clipPath
       clipPathUnits="userSpaceOnUse"
       id="clipPath426"><path
         d="M -45.5029,1072.33 H 945.225 V 135.819 H -45.5029 Z"
         id="path424" /></clipPath><clipPath
       clipPathUnits="userSpaceOnUse"
       id="clipPath442"><path
         d="M -4.50342,1033.58 H 986.222 V 97.0684 H -4.50342 Z"
         id="path440" /></clipPath><clipPath
       clipPathUnits="userSpaceOnUse"
       id="clipPath458"><path
         d="M -127.5,1149.83 H 863.227 V 213.323 H -127.5 Z"
         id="path456" /></clipPath><clipPath
       clipPathUnits="userSpaceOnUse"
       id="clipPath474"><path
         d="M -86.501,1111.08 H 904.227 V 174.571 H -86.501 Z"
         id="path472" /></clipPath><clipPath
       clipPathUnits="userSpaceOnUse"
       id="clipPath490"><path
         d="M -209.497,1227.34 H 781.229 V 290.828 h -990.726 z"
         id="path488" /></clipPath><clipPath
       clipPathUnits="userSpaceOnUse"
       id="clipPath506"><path
         d="M -168.497,1188.59 H 822.229 V 252.075 h -990.726 z"
         id="path504" /></clipPath><clipPath
       clipPathUnits="userSpaceOnUse"
       id="clipPath522"><path
         d="M 610.47,452.305 H 1601.2 V -484.206 H 610.47 Z"
         id="path520" /></clipPath><clipPath
       clipPathUnits="userSpaceOnUse"
       id="clipPath538"><path
         d="M 528.476,529.808 H 1519.2 V -406.705 H 528.476 Z"
         id="path536" /></clipPath><clipPath
       clipPathUnits="userSpaceOnUse"
       id="clipPath554"><path
         d="M 569.473,491.056 H 1560.2 V -445.457 H 569.473 Z"
         id="path552" /></clipPath><clipPath
       clipPathUnits="userSpaceOnUse"
       id="clipPath570"><path
         d="M 446.479,607.311 H 1437.21 V -329.2 H 446.479 Z"
         id="path568" /></clipPath><clipPath
       clipPathUnits="userSpaceOnUse"
       id="clipPath586"><path
         d="M 487.478,568.56 H 1478.2 V -367.952 H 487.478 Z"
         id="path584" /></clipPath><clipPath
       clipPathUnits="userSpaceOnUse"
       id="clipPath602"><path
         d="m 364.483,684.814 h 990.727 v -936.51 H 364.483 Z"
         id="path600" /></clipPath><clipPath
       clipPathUnits="userSpaceOnUse"
       id="clipPath618"><path
         d="m 405.48,646.063 h 990.73 V -290.448 H 405.48 Z"
         id="path616" /></clipPath><clipPath
       clipPathUnits="userSpaceOnUse"
       id="clipPath634"><path
         d="m 282.485,762.317 h 990.725 v -936.51 H 282.485 Z"
         id="path632" /></clipPath><clipPath
       clipPathUnits="userSpaceOnUse"
       id="clipPath650"><path
         d="M 323.484,723.566 H 1314.21 V -212.945 H 323.484 Z"
         id="path648" /></clipPath><clipPath
       clipPathUnits="userSpaceOnUse"
       id="clipPath666"><path
         d="m 60.897,71.086 h 922.77 V 610.833 H 60.897 Z"
         id="path664" /></clipPath><clipPath
       clipPathUnits="userSpaceOnUse"
       id="clipPath674"><path
         d="M -313.767,1861.61 H 2213.67 V -527.393 H -313.767 Z"
         id="path672" /></clipPath><clipPath
       clipPathUnits="userSpaceOnUse"
       id="clipPath690"><path
         d="M -354.766,1822.86 H 2172.67 V -566.145 H -354.766 Z"
         id="path688" /></clipPath><clipPath
       clipPathUnits="userSpaceOnUse"
       id="clipPath706"><path
         d="M -395.764,1784.11 H 2131.67 V -604.896 H -395.764 Z"
         id="path704" /></clipPath><clipPath
       clipPathUnits="userSpaceOnUse"
       id="clipPath722"><path
         d="M -436.763,1745.36 H 2090.67 V -643.646 H -436.763 Z"
         id="path720" /></clipPath><clipPath
       clipPathUnits="userSpaceOnUse"
       id="clipPath738"><path
         d="M -477.762,1706.61 H 2049.67 V -682.397 H -477.762 Z"
         id="path736" /></clipPath><clipPath
       clipPathUnits="userSpaceOnUse"
       id="clipPath754"><path
         d="M -518.759,1667.86 H 2008.67 V -721.149 H -518.759 Z"
         id="path752" /></clipPath><clipPath
       clipPathUnits="userSpaceOnUse"
       id="clipPath770"><path
         d="M -559.758,1629.1 H 1967.68 V -759.901 H -559.758 Z"
         id="path768" /></clipPath><clipPath
       clipPathUnits="userSpaceOnUse"
       id="clipPath786"><path
         d="M -600.757,1590.35 H 1926.68 V -798.654 H -600.757 Z"
         id="path784" /></clipPath><clipPath
       clipPathUnits="userSpaceOnUse"
       id="clipPath802"><path
         d="M -641.755,1551.6 H 1885.68 V -837.405 H -641.755 Z"
         id="path800" /></clipPath><clipPath
       clipPathUnits="userSpaceOnUse"
       id="clipPath818"><path
         d="M -682.753,1512.85 H 1844.68 V -876.157 H -682.753 Z"
         id="path816" /></clipPath><clipPath
       clipPathUnits="userSpaceOnUse"
       id="clipPath834"><path
         d="M -723.752,1474.1 H 1803.68 V -914.909 H -723.752 Z"
         id="path832" /></clipPath><clipPath
       clipPathUnits="userSpaceOnUse"
       id="clipPath850"><path
         d="M -764.749,1435.35 H 1762.69 V -953.659 H -764.749 Z"
         id="path848" /></clipPath><clipPath
       clipPathUnits="userSpaceOnUse"
       id="clipPath866"><path
         d="M -805.749,1396.6 H 1721.69 V -992.411 H -805.749 Z"
         id="path864" /></clipPath><clipPath
       clipPathUnits="userSpaceOnUse"
       id="clipPath882"><path
         d="M -846.746,1357.84 H 1680.69 v -2389 H -846.746 Z"
         id="path880" /></clipPath><clipPath
       clipPathUnits="userSpaceOnUse"
       id="clipPath898"><path
         d="M -887.745,1319.09 H 1639.69 v -2389 H -887.745 Z"
         id="path896" /></clipPath><clipPath
       clipPathUnits="userSpaceOnUse"
       id="clipPath914"><path
         d="M -928.744,1280.34 H 1598.69 V -1108.67 H -928.744 Z"
         id="path912" /></clipPath><clipPath
       clipPathUnits="userSpaceOnUse"
       id="clipPath930"><path
         d="M -969.742,1241.59 H 1557.69 V -1147.42 H -969.742 Z"
         id="path928" /></clipPath><clipPath
       clipPathUnits="userSpaceOnUse"
       id="clipPath946"><path
         d="M -1010.74,1202.84 H 1516.69 V -1186.17 H -1010.74 Z"
         id="path944" /></clipPath><clipPath
       clipPathUnits="userSpaceOnUse"
       id="clipPath962"><path
         d="m -1051.74,1164.08 h 2527.43 v -2389 h -2527.43 z"
         id="path960" /></clipPath><clipPath
       clipPathUnits="userSpaceOnUse"
       id="clipPath978"><path
         d="M 200.487,839.821 H 1191.21 V -96.6914 H 200.487 Z"
         id="path976" /></clipPath><clipPath
       clipPathUnits="userSpaceOnUse"
       id="clipPath994"><path
         d="M 241.486,801.07 H 1232.21 V -135.441 H 241.486 Z"
         id="path992" /></clipPath><clipPath
       clipPathUnits="userSpaceOnUse"
       id="clipPath1010"><path
         d="M 118.491,917.325 H 1109.22 V -19.1855 H 118.491 Z"
         id="path1008" /></clipPath><clipPath
       clipPathUnits="userSpaceOnUse"
       id="clipPath1026"><path
         d="m 159.49,878.573 h 990.73 V -57.9375 H 159.49 Z"
         id="path1024" /></clipPath><clipPath
       clipPathUnits="userSpaceOnUse"
       id="clipPath1042"><path
         d="M 36.4941,994.829 H 1027.22 V 58.3164 H 36.4941 Z"
         id="path1040" /></clipPath><clipPath
       clipPathUnits="userSpaceOnUse"
       id="clipPath1058"><path
         d="M 77.4927,956.077 H 1068.22 V 19.5654 H 77.4927 Z"
         id="path1056" /></clipPath><clipPath
       clipPathUnits="userSpaceOnUse"
       id="clipPath1074"><path
         d="M -45.5029,1072.33 H 945.225 V 135.819 H -45.5029 Z"
         id="path1072" /></clipPath><clipPath
       clipPathUnits="userSpaceOnUse"
       id="clipPath1090"><path
         d="M -4.50342,1033.58 H 986.222 V 97.0684 H -4.50342 Z"
         id="path1088" /></clipPath><clipPath
       clipPathUnits="userSpaceOnUse"
       id="clipPath1106"><path
         d="M -127.5,1149.83 H 863.227 V 213.323 H -127.5 Z"
         id="path1104" /></clipPath><clipPath
       clipPathUnits="userSpaceOnUse"
       id="clipPath1122"><path
         d="M -86.501,1111.08 H 904.227 V 174.571 H -86.501 Z"
         id="path1120" /></clipPath><clipPath
       clipPathUnits="userSpaceOnUse"
       id="clipPath1138"><path
         d="M -209.497,1227.34 H 781.229 V 290.828 h -990.726 z"
         id="path1136" /></clipPath><clipPath
       clipPathUnits="userSpaceOnUse"
       id="clipPath1154"><path
         d="M -168.497,1188.59 H 822.229 V 252.075 h -990.726 z"
         id="path1152" /></clipPath><clipPath
       clipPathUnits="userSpaceOnUse"
       id="clipPath1170"><path
         d="M 610.47,452.305 H 1601.2 V -484.206 H 610.47 Z"
         id="path1168" /></clipPath><clipPath
       clipPathUnits="userSpaceOnUse"
       id="clipPath1186"><path
         d="M 528.476,529.808 H 1519.2 V -406.705 H 528.476 Z"
         id="path1184" /></clipPath><clipPath
       clipPathUnits="userSpaceOnUse"
       id="clipPath1202"><path
         d="M 569.473,491.056 H 1560.2 V -445.457 H 569.473 Z"
         id="path1200" /></clipPath><clipPath
       clipPathUnits="userSpaceOnUse"
       id="clipPath1218"><path
         d="M 446.479,607.311 H 1437.21 V -329.2 H 446.479 Z"
         id="path1216" /></clipPath><clipPath
       clipPathUnits="userSpaceOnUse"
       id="clipPath1234"><path
         d="M 487.478,568.56 H 1478.2 V -367.952 H 487.478 Z"
         id="path1232" /></clipPath><clipPath
       clipPathUnits="userSpaceOnUse"
       id="clipPath1250"><path
         d="m 364.483,684.814 h 990.727 v -936.51 H 364.483 Z"
         id="path1248" /></clipPath><clipPath
       clipPathUnits="userSpaceOnUse"
       id="clipPath1266"><path
         d="m 405.48,646.063 h 990.73 V -290.448 H 405.48 Z"
         id="path1264" /></clipPath><clipPath
       clipPathUnits="userSpaceOnUse"
       id="clipPath1282"><path
         d="m 282.485,762.317 h 990.725 v -936.51 H 282.485 Z"
         id="path1280" /></clipPath><clipPath
       clipPathUnits="userSpaceOnUse"
       id="clipPath1298"><path
         d="M 323.484,723.566 H 1314.21 V -212.945 H 323.484 Z"
         id="path1296" /></clipPath><linearGradient
       x1="0"
       y1="0"
       x2="1"
       y2="0"
       gradientUnits="userSpaceOnUse"
       gradientTransform="matrix(661.82269,-382.10352,-382.10352,-661.82269,190.45605,555.15869)"
       spreadMethod="pad"
       id="linearGradient1330"><stop
         style="stop-opacity:1;stop-color:#a5bcbc"
         offset="0"
         id="stop1320" /><stop
         style="stop-opacity:1;stop-color:#d9d9d8"
         offset="0.448113"
         id="stop1322" /><stop
         style="stop-opacity:1;stop-color:#96b3b4"
         offset="0.80784113"
         id="stop1324" /><stop
         style="stop-opacity:1;stop-color:#96b3b4"
         offset="0.985849"
         id="stop1326" /><stop
         style="stop-opacity:1;stop-color:#96b3b4"
         offset="1"
         id="stop1328" /></linearGradient><clipPath
       clipPathUnits="userSpaceOnUse"
       id="clipPath1340"><path
         d="M 0,725.76 H 1208.266 V 0 H 0 Z"
         id="path1338" /></clipPath><linearGradient
       inkscape:collect="always"
       xlink:href="#linearGradient3319"
       id="linearGradient3323"
       x1="123.222"
       y1="436.521"
       x2="916.15503"
       y2="295.20801"
       gradientUnits="userSpaceOnUse" /></defs><sodipodi:namedview
     id="namedview4"
     pagecolor="#ffffff"
     bordercolor="#666666"
     borderopacity="1.0"
     inkscape:pageshadow="2"
     inkscape:pageopacity="0.0"
     inkscape:pagecheckerboard="0"
     showgrid="false"
     inkscape:zoom="0.97186263"
     inkscape:cx="663.15957"
     inkscape:cy="426.50061"
     inkscape:window-width="2560"
     inkscape:window-height="1330"
     inkscape:window-x="0"
     inkscape:window-y="41"
     inkscape:window-maximized="1"
     inkscape:current-layer="g8"
     height="967.67999px"
     fit-margin-top="0"
     fit-margin-left="0"
     fit-margin-right="0"
     fit-margin-bottom="0"
     inkscape:snap-global="true"
     width="1157.1794px"
     units="mm"
     scale-x="0.78667"
     inkscape:document-units="mm" /><g
     id="g8"
     inkscape:groupmode="layer"
     inkscape:label="squiggle"
     transform="matrix(1.3333333,0,0,-1.3333333,-119.45422,625.57598)"
     style="display:inline;opacity:1"><g
       id="g1308"><g
         id="g1310"><g
           id="g1316"><g
             id="g1318"><path
               d="m 533.656,466.969 c -6.488,-4.634 -0.932,-5.958 -4.565,-11.915 v 0 c -3.633,-5.956 -1.65,-9.402 -6.808,-7.182 v 0 c -5.16,2.219 -10.504,-4.07 -10.718,-6.387 v 0 c -0.214,-2.317 -8.549,-9.267 -10.9,-11.913 v 0 c -2.35,-2.65 -2.565,-8.936 -3.847,-11.914 v 0 c -1.283,-2.978 -7.694,-5.958 -11.327,-7.28 v 0 c -3.634,-1.325 -16.457,-13.572 -18.381,-16.55 v 0 c -1.923,-2.977 -12.609,-15.551 -13.465,-15.884 v 0 c -0.855,-0.331 -3.419,0 0.428,5.295 v 0 c 3.847,5.295 16.884,21.843 20.945,26.474 v 0 c 4.061,4.635 3.419,8.274 4.061,12.906 v 0 c 0.641,4.636 -2.351,5.298 -2.565,8.276 v 0 c -0.213,2.977 -6.626,11.911 -7.48,11.911 v 0 c -0.855,0 -1.282,-6.285 -5.558,-2.315 v 0 c -4.274,3.974 -7.693,5.277 -9.189,4.955 v 0 c -0.428,-0.093 -0.949,0.139 -1.515,0.369 v 0 c -1.418,0.578 -3.114,1.156 -4.302,-3.336 v 0 c -1.664,-6.289 -2.015,-8.275 -4.725,-9.597 v 0 c -2.709,-1.327 -10.19,-11.706 -10.19,-11.706 v 0 l -20.09,-22.053 c 0,0 -3.206,-4.964 -1.069,4.967 v 0 c 2.137,9.926 -8.121,11.58 -10.046,9.593 v 0 c -1.923,-1.983 -7.48,4.637 -11.968,4.637 v 0 c -4.488,0 -13.678,-4.965 -14.106,-5.959 v 0 C 375.849,411.371 355.117,383.9 355.117,383.9 v 0 c 0,0 -4.275,-1.656 -2.138,1.657 v 0 c 2.138,3.31 13.037,22.172 13.892,24.487 v 0 c 0.856,2.317 4.489,15.225 7.481,17.542 v 0 c 2.992,2.317 4.702,4.301 4.062,7.94 v 0 c -0.642,3.642 2.35,4.965 -0.856,6.953 v 0 c -3.206,1.986 -6.198,-0.022 -6.626,2.967 v 0 c -0.426,2.988 -1.495,4.974 -2.565,5.967 v 0 c -1.068,0.994 -5.186,2.317 -6.332,1.986 v 0 c -1.148,-0.331 -13.758,-1.325 -15.254,0 v 0 c -1.496,1.324 -7.481,2.318 -9.618,1.324 v 0 c -2.136,-0.993 -7.48,-8.274 -11.113,-12.906 v 0 c -3.633,-4.633 -9.405,-2.977 -10.046,-2.977 v 0 c -0.64,0 -0.64,-3.642 -2.992,-7.945 v 0 c -2.35,-4.301 -18.594,-9.266 -29.28,-22.836 v 0 c -10.686,-13.569 -30.643,-34.75 -30.643,-34.75 v 0 c 0,0 -3.071,-2.978 0,2.649 v 0 c 3.072,5.626 10.98,15.886 13.331,18.201 v 0 c 2.351,2.318 13.063,12.909 13.905,19.196 v 0 c 0.842,6.287 -0.842,10.922 0,12.909 v 0 c 0.842,1.984 -1.295,3.639 -3.433,3.639 v 0 c -2.136,0 -4.488,1.324 -5.129,2.979 v 0 c -0.641,1.655 -2.138,2.644 -2.138,5.626 v 0 c 0,2.977 0.214,4.963 -0.427,5.294 v 0 c -0.642,0.332 2.778,2.319 -2.565,0.332 v 0 c -5.343,-1.987 -15.174,-14.893 -16.03,-15.225 v 0 c -0.854,-0.332 -3.206,-1.654 -6.626,-5.958 v 0 c -3.419,-4.299 -11.113,-12.573 -13.464,-14.892 v 0 c -2.351,-2.315 -8.121,-9.927 -9.189,-10.258 v 0 c -1.07,-0.332 -4.062,-2.649 -3.634,0.331 v 0 c 0.427,2.978 2.778,6.95 4.06,8.272 v 0 c 1.283,1.325 7.267,8.606 8.978,10.261 v 0 c 1.709,1.655 3.419,5.626 3.419,6.619 v 0 c 0,0.993 -1.433,5.957 -2.533,6.948 v 0 c -1.101,0.995 -4.307,1.323 -4.307,1.323 v 0 c 0,0 -1.924,0 -0.427,3.311 v 0 c 1.496,3.31 0.641,4.302 -0.428,5.296 v 0 c -1.069,0.99 -2.35,1.655 -2.778,3.64 v 0 c -0.427,1.987 -0.427,4.632 -3.634,2.976 v 0 c -3.206,-1.654 -0.213,-4.961 -3.419,-6.287 v 0 c -3.206,-1.323 -4.299,0 -4.181,1.326 v 0 c 0.12,1.321 -0.307,2.317 -1.59,2.317 v 0 c -1.281,0 -8.297,-0.803 -10.24,-0.239 v 0 c -1.941,0.57 -0.873,-2.078 -4.079,-4.065 v 0 c -1.146,-0.71 -2.045,-0.574 -2.807,-0.439 v 0 c -1.37,0.243 -2.292,0.487 -3.391,-4.193 v 0 c -1.711,-7.281 -1.711,-7.612 -3.42,-9.599 v 0 c -1.71,-1.983 -4.703,-4.875 -6.412,-4.423 v 0 c -1.71,0.453 -5.985,4.423 -7.053,4.423 v 0 c -1.068,0 -5.116,-4.303 -5.55,0.665 v 0 c -0.435,4.963 -3.482,7.94 -3.482,7.94 v 0 l -5.115,9.691 c 0,0 -3.806,-1.089 -5.516,-2.078 v 0 c -1.71,-0.993 -4.916,-1.326 -5.129,-0.332 v 0 c -0.215,0.994 0.855,3.95 -1.283,3.961 v 0 c -2.137,0.01 -7.053,1.665 -8.122,1.003 v 0 c -1.069,-0.66 -1.923,0.993 -3.205,-3.643 v 0 c -1.283,-4.63 -1.71,-4.962 -3.634,-5.293 v 0 c -1.923,-0.329 -7.695,-0.329 -9.19,-0.992 v 0 c -1.496,-0.662 -3.634,-6.618 -3.847,-12.575 v 0 c -0.214,-5.959 1.496,-7.281 -0.427,-8.936 v 0 c -1.925,-1.655 -2.992,-0.994 -4.916,-3.31 v 0 c -1.924,-2.316 -5.984,-6.618 -8.336,-9.928 v 0 c -2.351,-3.311 -8.122,-8.605 -8.122,-8.605 v 0 c 0,0 -2.436,-1.771 -2.279,-3.863 v 0 c 0.048,-0.656 0.854,-8.385 0,-9.929 v 0 c -0.855,-1.544 -4.986,-3.751 -4.845,-7.279 v 0 c 0.143,-3.53 -2.001,-9.046 -0.003,-10.371 v 0 c 1.237,-0.821 2.546,-0.541 3.612,-0.261 v 0 c 0.654,0.172 1.218,0.344 1.615,0.261 v 0 c 1.046,-0.22 0.761,-0.88 0.761,-4.413 v 0 c 0,-3.531 -1.782,-6.176 0.035,-7.503 v 0 c 1.816,-1.321 3.669,-1.319 6.091,1.547 v 0 c 2.423,2.868 3.278,3.75 3.278,3.75 v 0 l 2.565,-0.44 c 0,0 1.424,1.986 1.852,4.852 v 0 c 0.427,2.868 2.85,5.076 3.562,5.74 v 0 c 0.711,0.658 22.48,24.046 22.48,24.046 v 0 c 0,0 3.879,-3.532 -4.242,-15.004 v 0 c -8.121,-11.469 -13.913,-17.425 -15.15,-18.31 v 0 c -1.235,-0.884 -2.232,-6.619 -1.235,-7.944 v 0 c 0.997,-1.325 2.706,-1.984 3.134,-2.204 v 0 c 0.427,-0.219 2.708,-0.664 2.708,-1.767 v 0 c 0,-1.101 0.427,-3.753 -0.713,-5.294 v 0 c -1.14,-1.543 -3.894,-5.956 -3.894,-5.956 v 0 c 0,0 0.901,-1.767 2.469,-1.325 v 0 c 0.626,0.176 1.162,-0.093 1.689,-0.363 v 0 c 0.79,-0.404 1.559,-0.809 2.585,0.293 v 0 c 1.71,1.836 4.273,6.247 5.842,8.456 v 0 c 1.568,2.203 28.64,32.433 28.64,32.433 v 0 c 0,0 11.114,4.853 -1.852,-14.341 v 0 C 143.313,338.781 139.324,337.677 137.47,336.355 v 0 c -1.852,-1.321 -8.692,-10.367 -9.689,-11.914 v 0 c -0.996,-1.544 -3.704,-1.323 -4.132,-5.074 v 0 c -0.427,-3.754 -0.284,-5.299 -1.281,-5.299 v 0 c -0.998,0 -6.556,4.196 -8.123,1.988 v 0 c -1.567,-2.205 -0.713,-11.032 -3.562,-13.68 v 0 c -2.85,-2.646 -4.559,-6.619 -3.704,-8.605 v 0 c 0.854,-1.983 2.707,-5.951 4.275,-5.073 v 0 c 1.566,0.883 7.265,4.413 7.694,3.09 v 0 c 0.427,-1.327 -0.998,-4.191 0.284,-6.841 v 0 c 1.282,-2.646 6.84,-4.19 10.259,-4.19 v 0 c 3.419,0 7.837,-3.752 9.262,-4.413 v 0 c 1.424,-0.664 2.85,3.75 4.702,8.384 v 0 c 1.853,4.635 29.923,36.4 29.923,36.4 v 0 c 0,0 1.846,0.666 -1.999,-6.613 v 0 c -3.845,-7.282 -15.671,-22.948 -16.526,-24.272 v 0 c -0.855,-1.325 -3.42,-6.617 -2.707,-7.502 v 0 c 0.713,-0.884 3.278,-0.002 2.85,-5.517 v 0 c -0.427,-5.516 -2.85,-5.735 -3.277,-6.617 v 0 c -0.428,-0.882 1.995,-3.088 3.846,-4.192 v 0 c 1.853,-1.105 2.992,-3.75 5.13,-6.838 v 0 c 2.138,-3.091 1.724,-7.504 7.203,-5.738 v 0 c 5.48,1.768 6.904,11.695 9.611,10.588 v 0 c 2.707,-1.104 6.411,-7.203 7.551,-10.991 v 0 c 1.141,-3.787 5.131,-4.453 7.125,-3.349 v 0 c 1.995,1.103 4.883,7.281 6.432,7.503 v 0 c 1.547,0.219 -1.833,6.394 0,9.706 v 0 c 1.832,3.311 18.502,23.828 19.073,24.492 v 0 c 0.57,0.662 5.352,-0.441 8.161,3.531 v 0 c 2.809,3.97 12.642,16.546 14.209,13.238 v 0 c 1.568,-3.311 2.707,-1.545 -1.852,-8.606 v 0 c -4.56,-7.06 -11.542,-13.9 -11.542,-13.9 v 0 c 0,0 -1.914,-1.106 -0.815,-4.854 v 0 c 1.099,-3.749 2.097,-8.83 1.243,-12.577 v 0 c -0.856,-3.748 -5.986,-7.722 -6.555,-11.252 v 0 c -0.569,-3.529 -3.134,-6.839 -0.712,-10.151 v 0 c 2.422,-3.308 4.703,-6.394 6.982,-3.969 v 0 c 2.28,2.428 2.706,7.501 6.554,5.956 v 0 c 3.847,-1.541 8.834,-7.694 12.395,-6.823 v 0 c 3.564,0.867 6.539,7.045 7.331,10.796 v 0 c 0.791,3.75 1.076,5.296 4.639,5.516 v 0 c 3.562,0.22 8.265,1.322 9.69,11.032 v 0 c 1.424,9.706 9.973,20.302 11.254,22.065 v 0 c 1.283,1.765 22.656,29.338 22.656,29.338 v 0 c 0,0 2.85,5.298 0.571,-1.102 v 0 c -2.281,-6.395 -13.964,-32.651 -14.107,-37.063 v 0 c -0.143,-4.411 -2.707,-16.989 0.428,-18.312 v 0 c 3.135,-1.324 4.417,-2.431 5.129,-6.178 v 0 c 0.713,-3.749 7.183,-14.561 9.434,-14.339 v 0 c 2.25,0.218 11.226,7.719 11.796,14.339 v 0 c 0.57,6.616 4.845,13.02 5.843,14.784 v 0 c 0.997,1.764 29.637,32.208 29.637,32.208 v 0 c 0,0 1.995,1.547 -1.425,-7.721 v 0 c -3.418,-9.265 -8.265,-21.179 -8.265,-22.502 v 0 c 0,-0.516 0.712,-0.33 1.725,-0.144 v 0 c 1.589,0.293 3.92,0.585 5.401,-1.841 v 0 c 2.422,-3.973 3.133,-10.817 5.271,-11.474 v 0 c 2.136,-0.664 7.553,5.074 10.117,5.736 v 0 c 2.565,0.662 3.511,-0.883 2.967,-7.942 v 0 c -0.545,-7.061 -3.536,-6.397 -5.531,-6.178 v 0 c -1.997,0.221 -4.123,-1.323 -1.278,-5.736 v 0 c 1.567,-2.435 2.791,-1.984 4.076,-1.534 v 0 c 1.044,0.368 2.128,0.734 3.471,-0.453 v 0 c 1.878,-1.663 2.689,-0.976 4.196,-0.289 v 0 c 0.893,0.407 2.031,0.813 3.782,0.731 v 0 c 4.702,-0.222 7.41,-1.105 7.838,-1.105 v 0 c 0.426,0 1.71,-2.651 3.419,6.84 v 0 c 1.71,9.49 16.1,23.827 16.1,23.827 v 0 c 0,0 31.49,28.46 35.764,28.681 v 0 c 4.275,0.224 2.422,-0.886 -0.713,-6.618 v 0 c -3.134,-5.734 -12.11,-22.727 -12.11,-25.152 v 0 c 0,-2.423 -0.144,-7.057 3.702,-3.971 v 0 c 3.849,3.088 13.68,25.598 22.656,30.008 v 0 c 8.977,4.41 9.976,-0.22 9.976,-0.22 v 0 c 0,0 -4.275,-8.827 -7.981,-15.003 v 0 c -3.705,-6.176 -3.513,-13.679 -4.747,-18.092 v 0 c -1.237,-4.413 -2.663,-4.853 1.042,-5.296 v 0 c 0.925,-0.111 1.94,-0.11 2.985,-0.11 v 0 c 3.141,0 6.563,0 8.701,-2.98 v 0 c 2.848,-3.969 5.129,-3.973 6.839,-1.764 v 0 c 1.71,2.205 10.542,5.295 7.978,0.444 v 0 c -2.565,-4.856 -8.927,-5.741 -5.033,-9.267 v 0 c 3.894,-3.53 22.7,0.877 23.841,1.323 v 0 c 1.141,0.443 1.088,3.967 3.394,7.5 v 0 c 2.306,3.53 6.58,7.059 8.291,7.059 v 0 c 1.709,0 3.706,1.329 4.274,9.711 v 0 c 0.569,8.38 1.709,10.146 2.565,11.472 v 0 c 0.854,1.323 5.415,3.53 7.695,6.176 v 0 c 2.279,2.646 15.956,16.327 15.956,16.327 v 0 c 0,0 7.411,3.089 2.852,-7.5 v 0 c -4.561,-10.588 -9.976,-15.886 -10.545,-17.211 v 0 c -0.569,-1.323 -1.431,-6.621 -3.851,-9.708 v 0 c -2.42,-3.091 -6.409,-6.176 -6.409,-7.497 v 0 c 0,-1.327 2.844,-2.209 6.409,-4.415 v 0 c 3.565,-2.209 1.719,-5.738 5.635,-6.619 v 0 c 3.915,-0.882 7.737,-1.328 10.244,-4.412 v 0 c 2.506,-3.09 4.215,0 5.925,3.53 v 0 c 1.71,3.531 4.598,3.969 5.434,4.851 v 0 c 0.836,0.882 3.115,8.383 3.115,12.798 v 0 c 0,4.412 2.85,6.178 3.99,6.178 v 0 c 1.139,0 5.983,-1.323 6.84,0 v 0 c 0.853,1.326 1.995,3.971 3.418,7.06 v 0 c 1.426,3.088 3.418,6.177 5.131,7.058 v 0 c 1.709,0.883 7.981,8.826 8.266,10.151 v 0 c 0.283,1.321 3.417,6.179 3.417,6.179 v 0 c 0,0 3.133,-0.886 2.851,-6.179 v 0 c -0.286,-5.298 -6.268,-13.235 -7.411,-15.001 v 0 c -1.14,-1.766 -4.559,-7.942 -4.559,-7.942 v 0 c 0,0 0.286,-5.736 0.286,-7.945 v 0 c 0,-2.207 -0.854,-5.292 0.285,-7.941 v 0 c 1.139,-2.65 5.982,-4.416 6.839,-7.061 v 0 c 0.854,-2.65 3.455,-4.084 4.577,-3.092 v 0 c 1.121,0.994 2.404,2.649 3.473,1.326 v 0 c 1.07,-1.326 6.199,-3.97 7.48,-1.987 v 0 c 1.283,1.987 2.779,5.294 4.488,6.949 v 0 c 1.711,1.657 4.703,2.65 4.488,6.622 v 0 c -0.21,3.97 -0.038,10.258 4.041,14.89 v 0 c 4.081,4.634 17.76,21.844 17.76,21.844 v 0 c 0,0 8,9.265 2.934,-4.304 v 0 c -5.071,-13.567 -8.705,-12.906 -8.705,-12.906 v 0 c 0,0 -0.641,-3.311 2.139,-3.639 v 0 c 2.779,-0.333 2.136,0.328 4.7,0.66 v 0 c 2.567,0.33 6.198,0 6.411,0.992 v 0 c 0.217,0.994 18.81,23.168 21.587,22.172 v 0 c 2.78,-0.991 4.061,-0.991 0,-6.285 v 0 C 656.475,292.227 646,280.645 643.864,277.005 v 0 c -2.137,-3.642 -3.848,-8.935 -5.131,-11.25 v 0 c -1.281,-2.317 -1.922,-5.297 0.642,-7.282 v 0 c 2.567,-1.987 6.625,-2.65 8.764,1.655 v 0 c 2.135,4.299 8.549,7.28 8.549,7.28 v 0 c 0,0 -2.992,-3.97 -2.779,-5.957 v 0 c 0.213,-1.987 1.281,-2.648 4.06,-5.296 v 0 c 2.778,-2.648 2.182,-8.273 5.151,-9.928 v 0 c 2.973,-1.656 3.4,-4.635 6.39,-0.66 v 0 c 2.993,3.967 7.696,6.949 9.617,8.936 v 0 c 1.925,1.983 5.131,3.97 7.053,3.306 v 0 c 1.924,-0.661 1.071,5.629 1.498,8.936 v 0 c 0.426,3.308 8.977,12.245 10.686,14.23 v 0 c 1.709,1.988 3.42,7.943 4.06,8.936 v 0 c 0.642,0.993 2.777,3.971 5.556,6.286 v 0 c 2.781,2.32 10.476,11.256 11.757,11.584 v 0 c 1.283,0.332 2.994,-1.984 1.283,-4.3 v 0 c -1.711,-2.318 -7.909,-9.926 -10.473,-12.577 v 0 c -2.567,-2.645 -1.711,-5.625 0,-6.289 v 0 c 1.709,-0.659 2.352,0.332 1.284,-2.978 v 0 c -1.07,-3.308 -2.779,-6.287 -3.208,-7.279 v 0 c -0.427,-0.995 1.924,-3.639 3.633,-3.639 v 0 c 1.711,0 3.219,0.327 3.854,-3.642 v 0 c 0.635,-3.971 2.287,-5.294 5.629,-5.958 v 0 c 3.342,-0.661 5.478,-2.646 7.615,-0.991 v 0 c 2.136,1.655 3.635,1.655 4.274,1.323 v 0 c 0.642,-0.332 0.214,3.311 2.566,8.936 v 0 c 2.351,5.625 17.953,25.48 19.449,26.475 v 0 c 1.496,0.991 0.856,3.31 -2.78,-0.665 v 0 c -3.632,-3.97 -5.769,-1.323 -2.989,1.988 v 0 c 2.777,3.308 13.249,15.883 13.249,15.883 v 0 c 0,0 1.496,-0.328 1.069,-3.307 v 0 c -0.428,-2.98 2.992,-2.648 4.703,1.325 v 0 c 1.709,3.97 5.342,9.15 7.266,9.042 v 0 c 1.925,-0.109 4.275,-0.95 1.925,-5.325 v 0 c -2.351,-4.378 -16.458,-22.912 -17.742,-26.554 v 0 c -1.281,-3.637 -1.709,-5.625 -0.427,-7.941 v 0 c 1.285,-2.318 3.847,-1.656 1.925,-6.287 v 0 c -1.925,-4.634 -3.207,-2.647 -2.992,-5.959 v 0 c 0.213,-3.307 1.494,-3.307 4.06,-4.3 v 0 c 2.565,-0.995 2.35,-3.643 4.274,-4.966 v 0 c 1,-0.689 3.111,-0.214 5.46,0.262 v 0 c 2.168,0.438 4.539,0.876 6.427,0.4 v 0 c 3.93,-0.994 11.197,-7.281 11.412,-9.268 v 0 c 0.211,-1.986 2.563,-1.656 4.912,0.331 v 0 c 2.351,1.986 17.315,15.887 19.236,22.174 v 0 c 1.926,6.29 4.916,12.573 7.911,17.872 v 0 c 2.989,5.295 14.96,23.977 16.883,24.236 v 0 c 1.923,0.253 5.343,5.548 0,-6.366 v 0 c -5.345,-11.913 -6.198,-14.89 -7.696,-16.546 v 0 c -1.494,-1.655 -3.205,-6.288 -1.494,-10.26 v 0 c 1.709,-3.973 1.281,-5.955 0.854,-10.591 v 0 c -0.427,-4.632 0.64,-14.231 3.634,-11.25 v 0 c 2.993,2.977 3.205,8.272 5.557,7.94 v 0 c 2.351,-0.332 6.412,-2.975 8.549,-2.975 v 0 c 2.136,0 8.12,-2.317 10.045,9.925 v 0 c 1.923,12.247 5.769,6.289 5.769,6.289 v 0 c 0,0 5.454,3.31 4.117,9.598 v 0 c -1.337,6.286 22.172,31.439 22.172,31.439 v 0 c 0,0 3.848,3.312 0,-4.962 v 0 c -3.845,-8.275 -8.333,-13.57 -8.976,-18.865 v 0 c -0.641,-5.297 4.702,-3.644 4.702,-6.288 v 0 c 0,-2.648 -1.495,-5.628 -1.923,-7.279 v 0 c -0.428,-1.656 2.566,-6.622 6.412,-6.622 v 0 c 3.847,0 4.916,6.289 7.053,4.966 v 0 c 2.137,-1.325 1.871,-5.627 4.674,-4.304 v 0 c 2.806,1.323 7.082,-2.317 13.281,15.556 v 0 c 6.197,17.87 28.029,43.683 28.029,43.683 v 0 c 0,0 2.959,5.627 5.526,4.964 v 0 c 2.564,-0.662 3.205,5.956 1.921,8.274 v 0 c -1.283,2.315 -1.068,4.634 0.643,6.621 v 0 c 1.709,1.984 4.061,5.625 1.709,7.612 v 0 c -2.352,1.983 -5.129,1.652 -6.413,1.652 v 0 c -1.28,0 -2.497,0.663 -3.386,5.959 v 0 c -0.889,5.295 0.609,9.266 -1.742,8.271 v 0 C 940.092,381.253 930.046,370.995 928.121,370 v 0 c -1.923,-0.991 13.534,22.506 16.063,22.839 v 0 c 2.533,0.328 1.248,16.214 1.463,17.868 v 0 c 0.212,1.654 -3.633,0.332 -3.846,2.319 v 0 c -0.215,1.984 3.846,2.312 4.701,5.626 v 0 c 0.856,3.309 -6.752,21.51 -8.72,21.51 v 0 c -1.967,0 -5.598,2.644 -12.223,-9.598 v 0 c -6.627,-12.244 -24.795,-34.087 -24.795,-34.087 v 0 c 0,0 -3.685,-1.987 2.11,6.95 v 0 c 5.798,8.934 17.339,26.476 17.982,29.784 v 0 c 0.639,3.31 -4.916,10.591 -7.053,13.238 v 0 c -2.136,2.649 -11.756,2.824 -13.039,3.398 v 0 c -1.282,0.573 -5.984,3.2 -11.113,-4.401 v 0 c -5.129,-7.602 -14.961,-23.485 -18.808,-27.126 v 0 c -3.846,-3.64 -25.648,-25.153 -29.923,-30.117 v 0 c -4.275,-4.964 -16.471,-17.208 -12.081,-9.267 v 0 c 4.388,7.942 6.74,22.836 11.013,24.822 v 0 c 4.273,1.986 10.686,9.268 11.327,13.9 v 0 c 0.642,4.633 -10.686,14.56 -11.754,18.201 v 0 c -1.069,3.639 -0.214,9.597 -3.42,10.59 v 0 c -1.872,0.579 -4.255,0.37 -6.296,0.161 v 0 c -1.454,-0.149 -2.735,-0.298 -3.535,-0.161 v 0 c -1.925,0.329 -5.559,-0.66 -9.191,-5.625 v 0 c -3.633,-4.965 -27.571,-33.426 -27.571,-33.426 v 0 l -15.047,-13.899 c 0,0 -5.257,-4.632 -1.197,3.639 v 0 c 4.061,8.276 13.038,17.872 15.174,20.188 v 0 c 2.141,2.316 8.765,7.612 6.2,10.922 v 0 c -2.565,3.307 -6.839,5.624 -8.336,5.294 v 0 c -1.494,-0.331 -0.854,1.984 -0.429,3.642 v 0 c 0.429,1.656 -3.831,2.978 -6.832,2.978 v 0 c -2.997,0 -4.493,-4.636 -5.777,-4.636 v 0 c -1.281,0 -6.199,1.327 -6.199,1.327 v 0 c 0,0 -7.476,4.632 -7.691,-1.987 v 0 c -0.215,-6.618 -1.362,-10.5 -4.635,-13.69 v 0 c -0.859,-0.837 -3.92,-4.24 -7.967,-8.804 v 0 c -2.364,5.773 -5.891,13.559 -5.345,16.537 v 0 c 0.847,4.633 -1.075,8.935 -2.786,10.259 v 0 c -1.711,1.323 -3.42,3.311 -4.917,3.311 v 0 c -1.495,0 -7.905,-1.655 -8.547,-1.655 v 0 c -0.643,0 -4.276,0.328 -0.643,2.647 v 0 c 3.635,2.318 2.992,3.506 1.713,4.401 v 0 c -1.286,0.892 -1.926,4.865 -5.559,4.202 v 0 c -3.635,-0.661 -3.207,-1.249 -8.123,-4.264 v 0 c -4.916,-3.016 -8.119,-6.986 -9.832,-5.331 v 0 c -1.709,1.655 -4.287,6.595 -6.311,2.967 v 0 c -2.021,-3.629 -5.617,-7.933 -7.453,-10.909 v 0 c -1.836,-2.982 -2.263,-7.615 -2.263,-11.253 v 0 c 0,-3.642 -7.696,-3.972 -10.472,-4.964 v 0 c -2.781,-0.994 -4.063,-2.65 -5.772,-5.959 v 0 c -1.709,-3.308 -8.051,-6.287 -8.727,-7.942 v 0 c -0.675,-1.655 -5.514,-7.942 -6.621,-7.942 v 0 c -1.109,0 -1.883,0.992 0,3.64 v 0 c 1.883,2.647 1.027,5.957 3.806,7.942 v 0 c 2.78,1.985 5.842,3.312 6.555,5.957 v 0 c 0.714,2.649 0.714,6.046 2.635,7.16 v 0 c 1.924,1.115 -0.996,2.44 -2.635,3.101 v 0 c -1.638,0.661 -5.273,0 -5.273,3.309 v 0 c 0,3.309 1.07,3.641 -1.922,4.632 v 0 c -2.994,0.993 -4.703,-0.663 -5.344,2.319 v 0 c -0.641,2.976 0,5.954 -4.275,3.971 v 0 c -4.274,-1.987 -4.488,-4.966 -6.197,-7.613 v 0 c -1.711,-2.647 -2.669,-2.978 -4.754,-2.318 v 0 c -2.084,0.664 -4.01,0.995 -4.65,-3.639 v 0 c -0.643,-4.632 -2.138,-7.941 -6.2,-8.273 v 0 c -4.058,-0.332 -17.738,-22.506 -17.738,-22.506 v 0 c 0,0 -3.51,-4.302 -1.862,0 v 0 c 1.649,4.302 8.061,14.231 9.129,16.548 v 0 c 1.066,2.319 5.342,7.613 5.985,7.945 v 0 c 0.641,0.329 1.921,1.654 1.921,5.294 v 0 c 0,3.64 -2.349,4.302 -2.349,6.949 v 0 c 0,2.647 0.428,8.603 0.428,8.603 v 0 c 0,0 -1.711,1.326 -3.848,1.654 v 0 c -2.137,0.333 -4.142,3.173 -4.529,2.743 v 0 c -0.387,-0.424 -11.5,7.009 -12.783,8.254 v 0 c -1.282,1.25 -7.908,1.778 -11.114,-4.277 v 0 c -3.205,-6.055 -6.837,-21.94 -8.336,-22.934 v 0 c -1.494,-0.992 -10.9,-19.194 -12.822,-22.835 v 0 c -1.925,-3.642 -8.121,-15.225 -8.121,-15.225 v 0 c 0,0 -1.07,-2.313 0.639,3.641 v 0 c 1.711,5.958 4.701,17.54 4.916,18.534 v 0 c 0.214,0.991 0.855,10.589 4.273,16.879 v 0 c 3.42,6.286 1.551,6.286 1.844,9.266 v 0 c 0.295,2.978 5.424,12.244 2.646,14.893 v 0 c -2.779,2.646 -14.318,8.935 -16.456,6.285 v 0 c -2.138,-2.646 -10.689,-11.582 -10.689,-5.294 v 0 c 0,6.29 3.634,6.951 3.849,9.929 v 0 c 0.214,2.979 -5.343,5.295 -7.481,5.958 v 0 c -1.373,0.424 -2.682,2.213 -5.161,2.213 v 0 c -1.382,0 -3.127,-0.556 -5.449,-2.213 m 185.44,-80.753 c 7.694,10.261 6.627,14.562 10.045,14.894 v 0 c 3.42,0.332 6.732,5.625 8.496,8.934 v 0 c 0.852,1.602 3.255,0.135 5.606,-1.553 v 0 C 731.822,395.552 716.11,377.519 716.11,377.519 v 0 c 0,0 -0.256,-0.085 -0.552,-0.085 v 0 c -0.969,0 -2.36,0.918 3.538,8.782"
               style="fill:url(#linearGradient3323);fill-opacity:1;stroke:none"
               id="path1332"
               inkscape:export-filename="/home/dial/Projects/Branding/GrudgeMatch-Branding/Rasters/squiggle.png"
               inkscape:export-xdpi="133.12"
               inkscape:export-ydpi="133.12" /></g></g></g></g><g
       id="g1334"><g
         id="g1336"
         clip-path="url(#clipPath1340)"><g
           id="g1342"
           transform="translate(95.2949,389.3042)" /></g></g></g></svg>
